PathFileType	4	(X/Y/Z)	/Users/itak/Documents/Research/Walk-IL/dataset/trc/00570_00009.trc
DataRate	CameraRate	NumFrames	NumMarkers	Units	OrigDataRate	OrigDataStartFrame	OrigNumFrames
100.000000	100.000000	4	53	mm	100.000000	263	526
Frame#	Time	RPSI			LPSI			L3			STRN			T10			C7			CLAV			RBAK			LBAK			LSHO			LUPA			LAEL			LAOL			LWTS			LWPS			LFRA			LIFD			LHPS			LHTS			RSHO			RUPA			RAEL			RAOL			RWTS			RWPS			RFRA			RIFD			RHTS			RHPS			RBHD			LFHD			RFHD			LBHD			LHIP			RHIP			RASI			LASI			LKNE			LTHI			LANK			LTIP			LTOE			LMT1			LMT5			LHEE			RKNE			RTHI			RANK			RTIP			RTOE			RMT1			RMT5			RHEE			
		X1	Y1	Z1	X2	Y2	Z2	X3	Y3	Z3	X4	Y4	Z4	X5	Y5	Z5	X6	Y6	Z6	X7	Y7	Z7	X8	Y8	Z8	X9	Y9	Z9	X10	Y10	Z10	X11	Y11	Z11	X12	Y12	Z12	X13	Y13	Z13	X14	Y14	Z14	X15	Y15	Z15	X16	Y16	Z16	X17	Y17	Z17	X18	Y18	Z18	X19	Y19	Z19	X20	Y20	Z20	X21	Y21	Z21	X22	Y22	Z22	X23	Y23	Z23	X24	Y24	Z24	X25	Y25	Z25	X26	Y26	Z26	X27	Y27	Z27	X28	Y28	Z28	X29	Y29	Z29	X30	Y30	Z30	X31	Y31	Z31	X32	Y32	Z32	X33	Y33	Z33	X34	Y34	Z34	X35	Y35	Z35	X36	Y36	Z36	X37	Y37	Z37	X38	Y38	Z38	X39	Y39	Z39	X40	Y40	Z40	X41	Y41	Z41	X42	Y42	Z42	X43	Y43	Z43	X44	Y44	Z44	X45	Y45	Z45	X46	Y46	Z46	X47	Y47	Z47	X48	Y48	Z48	X49	Y49	Z49	X50	Y50	Z50	X51	Y51	Z51	X52	Y52	Z52	X53	Y53	Z53	

264	2.63	-155.7389678955078	994.88623046875	118.2628479003906	-59.63075256347656	1008.330322265625	27.53535461425781	-105.3298110961914	1104.5810546875	70.46477508544922	72.35850524902344	1288.80859375	245.6432342529297	-101.567497253418	1229.533569335938	68.75017547607422	-66.56024932861328	1503.3232421875	118.1928024291992	61.00981521606445	1400.392944335938	235.7272338867188	-178.8749084472656	1378.873901367188	124.3588409423828	-25.5001335144043	1452.497802734375	29.88171768188477	101.9987640380859	1476.025024414062	42.71635818481445	161.5237579345703	1356.808959960938	-22.044677734375	231.0412139892578	1146.606811523438	-25.14049339294434	138.3890533447266	1117.84912109375	-56.45280838012695	305.3251037597656	930.7732543945312	103.5439758300781	337.7115478515625	905.486083984375	26.11753463745117	268.8002014160156	1069.178100585938	-4.416973114013672	341.8278198242188	766.7140502929688	117.8499145507812	351.5526428222656	849.247314453125	45.12433624267578	348.9751892089844	862.6778564453125	112.1216278076172	-138.6537017822266	1465.131469726562	267.5242614746094	-201.1443939208984	1400.530395507812	298.9559631347656	-243.6927947998047	1112.8046875	317.1519165039062	-260.0340881347656	1094.16796875	258.1895141601562	-107.9646911621094	906.9556274414062	399.1119689941406	-184.9196929931641	878.4898681640625	408.2629699707031	-239.7554016113281	1057.657348632812	330.8968505859375	-85.23052215576172	735.8924560546875	410.9786987304688	-91.77538299560547	817.7597045898438	433.0038146972656	-164.3033905029297	806.4196166992188	422.1407165527344	-62.99383163452148	1674.985473632812	215.4399108886719	138.1430511474609	1704.246826171875	258.6264953613281	13.63413715362549	1696.381713867188	330.8356018066406	83.72025299072266	1682.801025390625	138.1662902832031	127.4588851928711	943.6735229492188	22.47064781188965	-150.4454345703125	930.44677734375	294.9671630859375	-48.55576324462891	968.768798828125	310.8713684082031	146.0202331542969	967.8258666992188	116.8101806640625	113.7124862670898	497.8201293945312	77.21724700927734	134.478271484375	665.0304565429688	57.64008712768555	28.99919128417969	29.00409889221191	3.093185424804688	59.96223831176758	253.2928161621094	19.1224193572998	139.564697265625	40.2650260925293	192.9720306396484	63.36743545532227	45.24044036865234	167.0746917724609	127.5874710083008	32.98418045043945	77.3455810546875	-59.03340911865234	34.55041122436523	-4.762567043304443	4.151844501495361	527.65478515625	411.7352294921875	-91.51201629638672	798.2474365234375	355.5352172851562	-64.71389007568359	79.06993103027344	245.8123321533203	6.019068717956543	381.8703308105469	385.2569274902344	78.17001342773438	59.63053131103516	410.5345764160156	81.35465240478516	57.20670318603516	334.0430297851562	-16.39572334289551	66.05560302734375	365.4026794433594	-46.04193115234375	77.16813659667969	171.5438995361328	
265	2.64	-150.1291046142578	994.34423828125	121.7729721069336	-53.44558715820312	1007.814392089844	31.90498924255371	-99.27465057373047	1103.961791992188	74.57051849365234	77.00876617431641	1288.082885742188	251.0744323730469	-95.971923828125	1228.969848632812	72.72803497314453	-60.98862457275391	1502.765625	122.6648941040039	65.70356750488281	1399.691162109375	241.2218780517578	-173.3388977050781	1378.235595703125	127.9437942504883	-19.23297882080078	1451.848266601562	34.65362930297852	108.0835647583008	1475.456176757812	48.57637023925781	168.5366973876953	1356.364379882812	-15.50639343261719	239.6334381103516	1146.766235351562	-17.06807708740234	147.5475463867188	1116.934936523438	-48.92684555053711	315.0754089355469	933.046630859375	114.1801071166992	348.1361389160156	907.1764526367188	37.29244232177734	277.9246520996094	1069.828735351562	4.741590976715088	353.3304748535156	769.6311645507812	130.7148895263672	362.5506896972656	851.3538818359375	57.0452766418457	359.4974365234375	865.6071166992188	123.8087921142578	-134.1731109619141	1464.387084960938	271.5581665039062	-196.8731079101562	1399.68603515625	302.4745483398438	-239.2342681884766	1111.939208984375	320.1986999511719	-254.8985290527344	1093.271606445312	261.2484130859375	-104.0637054443359	905.9838256835938	402.92333984375	-181.1630096435547	877.5756225585938	411.4962158203125	-235.4965057373047	1056.773193359375	333.83544921875	-81.44378662109375	735.0079345703125	414.8419799804688	-88.17860412597656	816.7977294921875	436.8440246582031	-160.6082763671875	805.4993896484375	425.4561462402344	-58.22956466674805	1674.2607421875	219.9163360595703	142.5325622558594	1703.69677734375	264.7453002929688	17.41817283630371	1695.7353515625	335.9168090820312	89.08357238769531	1682.12255859375	143.8232116699219	133.4839782714844	942.96826171875	27.91329956054688	-146.1507110595703	929.8528442382812	298.4521179199219	-44.2020378112793	968.0590209960938	315.2783813476562	151.6632537841797	967.0206298828125	122.6484603881836	116.0307769775391	497.0279235839844	79.68000030517578	138.1954498291016	664.1771240234375	61.56506729125977	28.90715599060059	29.18531799316406	3.210364818572998	60.9954719543457	253.1425628662109	20.11588096618652	139.5659790039062	40.17376327514648	193.1103057861328	63.2977409362793	45.07766723632812	167.2720794677734	127.5492782592773	32.99696350097656	77.39332580566406	-59.20683670043945	34.71322631835938	-4.555273056030273	8.325362205505371	527.8843994140625	417.4372863769531	-88.19638824462891	797.797607421875	359.5970153808594	-43.80340576171875	72.15699768066406	265.1940002441406	14.50133419036865	381.4215393066406	395.2059326171875	96.07778930664062	62.73213577270508	433.4697265625	100.9722137451172	57.72178268432617	357.1640625	2.349951505661011	64.79041290283203	386.14111328125	-23.56787300109863	68.21023559570312	191.2309112548828	
266	2.65	-144.4975433349609	993.67529296875	125.4122772216797	-47.22222137451172	1007.196044921875	36.37918090820312	-93.21701049804688	1103.25439453125	78.77691650390625	81.61597442626953	1287.29931640625	256.5816650390625	-90.36981964111328	1228.31005859375	76.7889404296875	-55.49876403808594	1502.09619140625	127.2718353271484	70.3297119140625	1398.923461914062	246.8053588867188	-167.8979034423828	1377.546752929688	131.6469573974609	-13.02096271514893	1451.10400390625	39.51590728759766	114.0811004638672	1474.818359375	54.51160430908203	175.4230194091797	1355.85107421875	-8.889358520507812	247.9688873291016	1146.832275390625	-8.951305389404297	156.3979949951172	1115.979858398438	-41.27210235595703	324.5128784179688	935.2750854492188	124.8753204345703	358.1809692382812	908.7855224609375	48.51825714111328	286.7727355957031	1070.411865234375	13.93526268005371	364.4340209960938	772.52978515625	143.6914978027344	373.1477966308594	853.3901977539062	69.02094268798828	369.6681213378906	868.4943237304688	135.5384063720703	-129.7578125	1463.566772460938	275.7024841308594	-192.5986175537109	1398.76513671875	306.1396484375	-234.7669525146484	1110.97265625	323.3803100585938	-249.7870025634766	1092.32861328125	264.4526062011719	-100.3351821899414	904.77978515625	406.84912109375	-177.5881500244141	876.5004272460938	414.8059692382812	-231.2540130615234	1055.789916992188	336.8987426757812	-77.98365020751953	733.8668212890625	418.7469787597656	-84.82529449462891	815.576416015625	440.7538757324219	-157.1515808105469	804.3966674804688	428.8200378417969	-53.52345275878906	1673.460571289062	224.5201263427734	146.8647613525391	1703.063354492188	270.9190063476562	21.18464469909668	1695.025024414062	341.1084289550781	94.36817169189453	1681.355834960938	149.5714416503906	139.5387115478516	942.1885375976562	33.50228500366211	-141.8128051757812	929.1328125	302.0076293945312	-39.89306640625	967.2566528320312	319.7997131347656	157.2126617431641	966.1013793945312	128.5279998779297	118.3141784667969	496.2359008789062	82.30122375488281	141.9119873046875	663.272216796875	65.64641571044922	28.81207275390625	29.37067413330078	3.334254264831543	62.03980255126953	253.0138702392578	21.17352294921875	139.5777282714844	40.08793258666992	193.2552337646484	63.23612213134766	44.91956329345703	167.4704437255859	127.5171279907227	33.01155471801758	77.43456268310547	-59.37610626220703	34.893310546875	-4.352701187133789	12.2431640625	527.7891845703125	422.9179992675781	-85.02115631103516	797.1336059570312	363.616943359375	-23.15661239624023	65.94242095947266	284.9100036621094	22.72997856140137	380.9648742675781	405.060302734375	113.6275405883789	66.20065307617188	456.05712890625	120.1608963012695	58.85009002685547	380.0595092773438	20.82956504821777	63.93039703369141	406.8953247070312	-1.427085876464844	60.17196273803711	211.3361968994141	
267	2.66	-138.8428497314453	992.8787841796875	129.1978454589844	-40.96685028076172	1006.466186523438	40.973388671875	-87.16836547851562	1102.456176757812	83.0843505859375	86.17821502685547	1286.456298828125	262.1700744628906	-84.70299530029297	1227.543334960938	80.96749114990234	-50.09479522705078	1501.306030273438	132.0196075439453	74.88311004638672	1398.088256835938	252.4821472167969	-162.5573272705078	1376.7998046875	135.4758148193359	-6.8641037940979	1450.263793945312	44.46933364868164	119.9983520507812	1474.110717773438	60.5228385925293	182.1905670166016	1355.2646484375	-2.184862852096558	256.0572814941406	1146.796630859375	-0.7865311503410339	164.9547576904297	1114.97705078125	-33.50278472900391	333.6207885742188	937.433837890625	135.6177978515625	367.8442993164062	910.2939453125	59.78474807739258	295.3477783203125	1070.915649414062	23.14751052856445	375.1116027832031	775.3797607421875	156.7485046386719	383.3324279785156	855.3328247070312	81.03445434570312	379.4623413085938	871.3062133789062	147.3027954101562	-125.408073425293	1462.666137695312	279.9589538574219	-188.3305206298828	1397.770141601562	309.9566040039062	-230.3133392333984	1109.902954101562	326.6891784667969	-244.7792053222656	1091.348754882812	267.7361145019531	-96.78163146972656	903.3630981445312	410.9037780761719	-174.1953735351562	875.2667236328125	418.1954345703125	-227.0398559570312	1054.704467773438	340.0814819335938	-74.8360595703125	732.480224609375	422.6911010742188	-81.71041107177734	814.1177368164062	444.7369384765625	-153.9317779541016	803.1167602539062	432.2354431152344	-48.87099075317383	1672.584594726562	229.2538909912109	151.1403656005859	1702.337280273438	277.1586608886719	24.93330764770508	1694.242919921875	346.4125366210938	99.57678985595703	1680.500366210938	155.4176483154297	145.6192016601562	941.340576171875	39.23834228515625	-137.3956756591797	928.2861328125	305.6589965820312	-35.61397171020508	966.3578491210938	324.4335327148438	162.6526641845703	965.0377197265625	134.4093017578125	120.5491714477539	495.4549560546875	85.05709838867188	145.6160583496094	662.3161010742188	69.86649322509766	28.71437072753906	29.5566520690918	3.46847677230835	63.08377838134766	252.9127349853516	22.28986930847168	139.6033020019531	40.0107307434082	193.4009094238281	63.18674468994141	44.77573394775391	167.6636199951172	127.4920959472656	33.02897644042969	77.4683837890625	-59.53544998168945	35.09039688110352	-4.156816005706787	15.95609474182129	527.3645629882812	428.1956481933594	-81.9345703125	796.2553100585938	367.6187744140625	-2.849465847015381	60.44086837768555	304.8544921875	30.71491050720215	380.5021057128906	414.7822875976562	130.7652130126953	70.01970672607422	478.2514953613281	138.8618621826172	60.57574462890625	402.6647644042969	38.97312545776367	63.47804641723633	427.6007385253906	20.29057312011719	53.07186889648438	231.7601928710938	
